<svg xmlns="http://www.w3.org/2000/svg" viewBox="0 0 24.721 22.474">
  <defs>
    <style>
      .cls-1 {
        fill: #8d8d8d;
      }
    </style>
  </defs>
  <g id="noun_chart_1740194" transform="translate(-2.357 -3.928)">
    <g id="Group_428" data-name="Group 428" transform="translate(2.357 3.928)">
      <path id="Path_461" data-name="Path 461" class="cls-1" d="M2.638,378.07a.281.281,0,0,0-.281.281v21.912a.281.281,0,0,0,.281.281H26.8a.281.281,0,0,0,0-.562H2.919V378.351a.281.281,0,0,0-.281-.281Zm20.507,3.09a1.69,1.69,0,0,0-1.686,1.686A1.661,1.661,0,0,0,21.934,384l-3.582,5.109a1.7,1.7,0,0,0-1.887.579L13.7,388.078a1.648,1.648,0,0,0,.176-.737,1.686,1.686,0,1,0-3.371,0,1.661,1.661,0,0,0,.474,1.159L7.4,393.609a1.684,1.684,0,1,0,.5.272l3.529-5.048a1.669,1.669,0,0,0,.764.193,1.692,1.692,0,0,0,1.185-.492l2.836,1.659a1.683,1.683,0,1,0,3.283.518,1.69,1.69,0,0,0-.641-1.326l3.529-5.048a1.669,1.669,0,0,0,.764.193,1.686,1.686,0,0,0,0-3.371Zm0,.562a1.124,1.124,0,1,1-1.124,1.124A1.119,1.119,0,0,1,23.146,381.722Zm-10.956,4.495a1.124,1.124,0,1,1-1.124,1.124A1.119,1.119,0,0,1,12.189,386.217Zm5.618,3.371a1.124,1.124,0,1,1-1.124,1.124A1.119,1.119,0,0,1,17.808,389.588ZM6.852,394.083a1.124,1.124,0,1,1-1.124,1.124,1.119,1.119,0,0,1,1.124-1.124Z" transform="translate(-2.357 -378.07)"/>
    </g>
  </g>
</svg>
