<svg xmlns="http://www.w3.org/2000/svg" viewBox="0 0 47 46.8">
  <defs>
    <style>
      .cls-1 {
        fill: #c4cdd5;
      }
    </style>
  </defs>
  <g id="Group_316" data-name="Group 316" transform="translate(-0.5 -0.6)">
    <path id="Path_387" data-name="Path 387" class="cls-1" d="M39.5,10.3H.5V.6h39ZM2.5,8.4H37.6V2.5H2.5Z"/>
    <rect id="Rectangle_1439" data-name="Rectangle 1439" class="cls-1" width="2" height="2" transform="translate(5.4 4.5)"/>
    <rect id="Rectangle_1440" data-name="Rectangle 1440" class="cls-1" width="2" height="2" transform="translate(9.3 4.5)"/>
    <rect id="Rectangle_1441" data-name="Rectangle 1441" class="cls-1" width="2" height="2" transform="translate(13.2 4.5)"/>
    <g id="Group_315" data-name="Group 315">
      <path id="Path_388" data-name="Path 388" class="cls-1" d="M33.7,47.4a15.747,15.747,0,0,1-13.5-7.8l-.3-.5.3-.5a15.583,15.583,0,0,1,27,0l.3.5-.3.5A15.624,15.624,0,0,1,33.7,47.4ZM22.2,39.1a13.646,13.646,0,0,0,23,0,13.646,13.646,0,0,0-23,0Z"/>
      <path id="Path_389" data-name="Path 389" class="cls-1" d="M33.7,44a4.9,4.9,0,1,1,4.9-4.9A4.908,4.908,0,0,1,33.7,44Zm0-7.8a2.9,2.9,0,1,0,2.9,2.9A2.9,2.9,0,0,0,33.7,36.2Z"/>
    </g>
    <path id="Path_390" data-name="Path 390" class="cls-1" d="M23.3,37.7H.5V8.4h39V34l-1.3-.5a14.234,14.234,0,0,0-4.5-.8,13.728,13.728,0,0,0-10.2,4.6Zm-20.8-2H22.4a15.505,15.505,0,0,1,11.3-4.9,17.373,17.373,0,0,1,3.9.5v-21H2.5Z"/>
  </g>
</svg>
